<svg width="0" height="0" class="hidden">
  <symbol fill="none" xmlns="http://www.w3.org/2000/svg" viewBox="0 0 252 41" id="logo">
    <path d="M62.6914 30L57.4097 18.1055L62.0117 7.41455H53.2466L49.0693 18.2612L49.0977 15.6558V7.41455H40.5308V30H49.0977V22.0137L49.9331 20.1587L53.5015 30H62.6914ZM72.207 5.80029V9.82178H64.1216V5.80029H72.207ZM72.207 30H64.1216V11.5918H72.207V30ZM87.4292 11.2095C89.3644 11.2189 90.8418 11.6815 91.8613 12.5972C92.8809 13.5129 93.3906 14.8581 93.3906 16.6328V30H85.3052V14.353H82.9404V30H74.855V11.5918H82.0767L82.6006 13.1777C83.0254 12.583 83.672 12.1063 84.5405 11.7476C85.409 11.3888 86.3719 11.2095 87.4292 11.2095ZM104.959 30.4248C104.374 30.4248 103.869 30.4201 103.444 30.4106C103.02 30.4012 102.529 30.3776 101.972 30.3398C101.415 30.3021 100.933 30.2454 100.527 30.1699C100.131 30.1038 99.6966 30.0047 99.2246 29.8726C98.762 29.7404 98.3656 29.5846 98.0352 29.4053C97.7142 29.2259 97.3885 28.9993 97.0581 28.7256C96.7371 28.4518 96.4775 28.145 96.2793 27.8052C96.0905 27.4653 95.9347 27.0641 95.812 26.6016C95.6987 26.139 95.6421 25.6292 95.6421 25.0723V16.5054C95.6421 15.9106 95.7129 15.3678 95.8545 14.877C96.0055 14.3766 96.2227 13.9518 96.5059 13.6025C96.7985 13.2533 97.1195 12.9465 97.4688 12.6821C97.8275 12.4084 98.2523 12.1865 98.7432 12.0166C99.234 11.8467 99.7061 11.7051 100.159 11.5918C100.622 11.4785 101.15 11.3983 101.745 11.3511C102.349 11.2944 102.887 11.2567 103.359 11.2378C103.831 11.2189 104.369 11.2095 104.974 11.2095C105.71 11.2095 106.357 11.2236 106.914 11.252C107.48 11.2708 108.098 11.3228 108.769 11.4077C109.439 11.4927 110.015 11.6107 110.496 11.7617C110.987 11.9128 111.473 12.1204 111.955 12.3848C112.445 12.6491 112.842 12.9653 113.144 13.3335C113.456 13.7017 113.706 14.1548 113.895 14.6929C114.083 15.231 114.178 15.8398 114.178 16.5195V25.0864C114.178 25.8133 114.074 26.46 113.866 27.0264C113.668 27.5928 113.418 28.0648 113.116 28.4424C112.823 28.8105 112.412 29.1268 111.884 29.3911C111.365 29.646 110.878 29.8395 110.425 29.9717C109.972 30.1038 109.382 30.203 108.655 30.269C107.928 30.3446 107.324 30.387 106.843 30.3965C106.371 30.4154 105.743 30.4248 104.959 30.4248ZM103.728 26.7715H106.078V14.353H103.728V26.7715ZM133.988 16.4346L131.765 30.0142H125.718L123.665 16.4346H123.467L122.674 30H116.146L117.335 7.41455H126.823L128.621 20.4985H128.805L130.604 7.41455H140.105L141.294 30H134.979L134.186 16.4346H133.988ZM152.566 30.4248C151.981 30.4248 151.476 30.4201 151.051 30.4106C150.626 30.4012 150.135 30.3776 149.578 30.3398C149.021 30.3021 148.54 30.2454 148.134 30.1699C147.737 30.1038 147.303 30.0047 146.831 29.8726C146.368 29.7404 145.972 29.5846 145.642 29.4053C145.321 29.2259 144.995 28.9993 144.665 28.7256C144.344 28.4518 144.084 28.145 143.886 27.8052C143.697 27.4653 143.541 27.0641 143.418 26.6016C143.305 26.139 143.249 25.6292 143.249 25.0723V16.5054C143.249 15.9106 143.319 15.3678 143.461 14.877C143.612 14.3766 143.829 13.9518 144.112 13.6025C144.405 13.2533 144.726 12.9465 145.075 12.6821C145.434 12.4084 145.859 12.1865 146.35 12.0166C146.84 11.8467 147.312 11.7051 147.766 11.5918C148.228 11.4785 148.757 11.3983 149.352 11.3511C149.956 11.2944 150.494 11.2567 150.966 11.2378C151.438 11.2189 151.976 11.2095 152.58 11.2095C153.316 11.2095 153.963 11.2236 154.52 11.252C155.086 11.2708 155.705 11.3228 156.375 11.4077C157.045 11.4927 157.621 11.6107 158.103 11.7617C158.593 11.9128 159.08 12.1204 159.561 12.3848C160.052 12.6491 160.448 12.9653 160.75 13.3335C161.062 13.7017 161.312 14.1548 161.501 14.6929C161.69 15.231 161.784 15.8398 161.784 16.5195V25.0864C161.784 25.8133 161.68 26.46 161.473 27.0264C161.274 27.5928 161.024 28.0648 160.722 28.4424C160.43 28.8105 160.019 29.1268 159.49 29.3911C158.971 29.646 158.485 29.8395 158.032 29.9717C157.579 30.1038 156.989 30.203 156.262 30.269C155.535 30.3446 154.931 30.387 154.449 30.3965C153.977 30.4154 153.349 30.4248 152.566 30.4248ZM151.334 26.7715H153.685V14.353H151.334V26.7715ZM176.78 11.2095C178.715 11.2189 180.192 11.6815 181.212 12.5972C182.231 13.5129 182.741 14.8581 182.741 16.6328V30H174.656V14.353H172.291V30H164.206V11.5918H171.427L171.951 13.1777C172.376 12.583 173.023 12.1063 173.891 11.7476C174.76 11.3888 175.722 11.2095 176.78 11.2095ZM195.16 23.6846H195.174C195.098 23.5996 194.891 23.5335 194.551 23.4863C194.371 23.458 194.055 23.4155 193.602 23.3589C193.158 23.3022 192.809 23.2598 192.554 23.2314C192.309 23.1937 191.997 23.1465 191.62 23.0898C191.251 23.0238 190.912 22.9577 190.6 22.8916C190.289 22.8255 189.991 22.7547 189.708 22.6792C189.009 22.4904 188.372 22.245 187.796 21.9429C187.23 21.6408 186.706 21.2726 186.225 20.8384C185.753 20.4041 185.384 19.8849 185.12 19.2808C184.856 18.6672 184.724 17.9922 184.724 17.2559C184.724 16.529 184.809 15.8729 184.979 15.2876C185.148 14.7023 185.38 14.202 185.672 13.7866C185.965 13.3713 186.338 13.0125 186.791 12.7104C187.254 12.3989 187.74 12.1488 188.25 11.96C188.759 11.7712 189.349 11.6201 190.02 11.5068C190.69 11.3936 191.351 11.318 192.002 11.2803C192.653 11.2331 193.385 11.2095 194.197 11.2095C194.858 11.2095 195.424 11.2189 195.896 11.2378C196.377 11.2567 196.939 11.3039 197.581 11.3794C198.223 11.4549 198.771 11.5635 199.224 11.7051C199.677 11.8372 200.144 12.0355 200.625 12.2998C201.107 12.5641 201.494 12.8757 201.787 13.2344C202.079 13.5931 202.32 14.0509 202.509 14.6079C202.707 15.1554 202.806 15.7738 202.806 16.4629C202.806 17.1143 202.801 17.5107 202.792 17.6523L195.16 17.2275V14.9478H192.795V17.8081C192.88 17.8931 193.092 17.9639 193.432 18.0205C193.687 18.0583 194.187 18.1338 194.933 18.2471C195.679 18.3509 196.311 18.45 196.831 18.5444C197.35 18.6388 197.831 18.7474 198.275 18.8701C198.955 19.0589 199.573 19.2949 200.13 19.5781C200.696 19.8519 201.22 20.1965 201.702 20.6118C202.183 21.0177 202.561 21.5181 202.834 22.1128C203.108 22.6981 203.245 23.3447 203.245 24.0527C203.245 24.7702 203.174 25.4215 203.033 26.0068C202.901 26.5921 202.698 27.0972 202.424 27.522C202.16 27.9468 201.857 28.3197 201.518 28.6406C201.187 28.9616 200.781 29.2259 200.3 29.4336C199.818 29.6413 199.346 29.8159 198.884 29.9575C198.421 30.0897 197.883 30.1888 197.27 30.2549C196.656 30.321 196.09 30.3634 195.57 30.3823C195.051 30.4106 194.456 30.4248 193.786 30.4248C192.993 30.4248 192.309 30.4106 191.733 30.3823C191.157 30.354 190.548 30.2879 189.906 30.1841C189.264 30.0897 188.722 29.9575 188.278 29.7876C187.844 29.6082 187.414 29.3675 186.989 29.0654C186.564 28.7633 186.225 28.4046 185.97 27.9893C185.724 27.5645 185.526 27.05 185.375 26.4458C185.224 25.8416 185.148 25.1525 185.148 24.3784C185.148 24.1613 185.153 23.9961 185.163 23.8828L192.795 24.3359V26.7007H195.16V23.6846ZM216.796 30.0991C216.796 30.0991 216.768 30.1038 216.711 30.1133C216.655 30.1227 216.575 30.1322 216.471 30.1416C216.367 30.1605 216.244 30.1794 216.103 30.1982C215.97 30.2171 215.815 30.236 215.635 30.2549C215.456 30.2738 215.272 30.2879 215.083 30.2974C214.894 30.3162 214.687 30.3304 214.46 30.3398C214.243 30.3493 214.026 30.354 213.809 30.354C212.789 30.354 211.916 30.3257 211.189 30.269C210.472 30.2124 209.797 30.1086 209.164 29.9575C208.541 29.8065 208.031 29.6035 207.635 29.3486C207.238 29.0938 206.898 28.7633 206.615 28.3574C206.332 27.9515 206.129 27.4701 206.006 26.9131C205.884 26.3467 205.822 25.6812 205.822 24.9165V14.4238H203.882V11.5918H205.822V7.41455H213.908V11.5918H216.159V14.4238H213.908V25.3555C213.908 25.6481 213.983 25.8983 214.134 26.106C214.285 26.3042 214.502 26.4552 214.786 26.5591C215.069 26.6629 215.366 26.7384 215.678 26.7856C215.999 26.8234 216.372 26.8423 216.796 26.8423V30.0991ZM226.482 18.9976H228.861V14.353H226.482V18.9976ZM236.932 23.1606C237.008 23.7365 237.045 24.2227 237.045 24.6191C237.045 26.7337 236.29 28.23 234.78 29.1079C233.279 29.9858 230.914 30.4248 227.686 30.4248C227.129 30.4248 226.642 30.4201 226.227 30.4106C225.812 30.4012 225.33 30.3729 224.783 30.3257C224.235 30.2879 223.758 30.2313 223.353 30.1558C222.947 30.0897 222.508 29.9906 222.036 29.8584C221.573 29.7262 221.172 29.5705 220.832 29.3911C220.502 29.2023 220.171 28.971 219.841 28.6973C219.52 28.4235 219.256 28.1167 219.048 27.7769C218.85 27.4276 218.689 27.0169 218.566 26.5449C218.444 26.0729 218.382 25.5584 218.382 25.0015V16.5054C218.382 15.8162 218.486 15.1979 218.694 14.6504C218.902 14.0934 219.166 13.6356 219.487 13.2769C219.817 12.9087 220.242 12.5924 220.761 12.3281C221.29 12.0638 221.8 11.8608 222.291 11.7192C222.791 11.5776 223.381 11.4691 224.061 11.3936C224.74 11.3086 225.335 11.2567 225.845 11.2378C226.364 11.2189 226.968 11.2095 227.657 11.2095C228.195 11.2095 228.667 11.2142 229.073 11.2236C229.479 11.2331 229.951 11.2567 230.489 11.2944C231.037 11.3322 231.509 11.3888 231.905 11.4644C232.311 11.5304 232.75 11.6296 233.222 11.7617C233.694 11.8844 234.1 12.0355 234.44 12.2148C234.78 12.3942 235.115 12.6208 235.445 12.8945C235.776 13.1589 236.04 13.4609 236.238 13.8008C236.446 14.1312 236.611 14.5277 236.734 14.9902C236.866 15.4434 236.932 15.9437 236.932 16.4912V21.4473H226.482V27.1821H228.847V23.1606H236.932ZM239.283 30L239.297 11.5918H246.179L246.759 13.6733C247.071 12.9276 247.647 12.3376 248.487 11.9033C249.327 11.4691 250.304 11.2378 251.418 11.2095V16.562L247.368 17.355V30H239.283Z" fill="white"></path>
    <path fill-rule="evenodd" clip-rule="evenodd" d="M17.5 38C27.165 38 35 30.165 35 20.5C35 10.835 27.165 3 17.5 3C7.83502 3 0 10.835 0 20.5C0 30.165 7.83502 38 17.5 38ZM24.7348 19.0945L11.5659 15.5659L15.0945 28.7348L24.7348 19.0945Z" fill="white"></path>
  </symbol>
  <symbol fill="none" xmlns="http://www.w3.org/2000/svg" viewBox="0 0 16 16" id="icon-search">
    <circle cx="7.19214" cy="7" r="6" stroke="white" stroke-width="2"></circle>
    <line x1="10.7071" y1="10.469" x2="14.9497" y2="14.7117" stroke="white" stroke-width="2"></line>
  </symbol>
  <symbol fill="none" xmlns="http://www.w3.org/2000/svg" viewBox="0 0 34 34" id="facebook-icon">
    <ellipse cx="16.857" cy="16.9025" rx="16.2857" ry="16.0988" fill="#313131"></ellipse>
    <path d="M24.1855 11.9296C24.1855 10.7247 23.1097 9.66162 21.8904 9.66162H12.6379C11.4186 9.66162 10.3428 10.7247 10.3428 11.9296V21.0721C10.3428 22.277 11.4186 23.3401 12.6379 23.3401H17.3V18.1664H15.5786V15.8984H17.3V14.9771C17.3 13.4179 18.4476 12.0713 19.8821 12.0713H21.7469V14.3392H19.8821C19.6669 14.3392 19.4517 14.5518 19.4517 14.9771V15.8984H21.7469V18.1664H19.4517V23.3401H21.8904C23.1097 23.3401 24.1855 22.277 24.1855 21.0721V11.9296Z" fill="#C7C7C7"></path>
  </symbol>
   <symbol fill="none" xmlns="http://www.w3.org/2000/svg" viewBox="0 0 34 34" id="instagramm-icon">
    <ellipse cx="17.0001" cy="16.9025" rx="16.2857" ry="16.0988" fill="#313131"></ellipse>
    <path d="M22.3588 10.4644H12.4558C11.3377 10.4644 10.4858 11.3063 10.4858 12.4114V22.1994C10.4858 23.3045 11.3377 24.1465 12.4558 24.1465H22.3588C23.4769 24.1465 24.3287 23.3045 24.3287 22.1994V12.4114C24.3287 11.3063 23.4769 10.4644 22.3588 10.4644ZM17.4073 21.4101C19.6967 21.4101 21.5602 19.6209 21.5602 17.4633C21.5602 17.0949 21.5069 16.6739 21.4004 16.3582H22.5718V21.9363C22.5718 22.1994 22.3588 22.4625 22.0393 22.4625H12.7752C12.509 22.4625 12.2428 22.252 12.2428 21.9363V16.3056H13.4674C13.3609 16.6739 13.3077 17.0423 13.3077 17.4107C13.2544 19.6209 15.1179 21.4101 17.4073 21.4101ZM17.4073 19.8314C15.9165 19.8314 14.7452 18.6736 14.7452 17.2528C14.7452 15.832 15.9165 14.6742 17.4073 14.6742C18.8981 14.6742 20.0694 15.832 20.0694 17.2528C20.0694 18.7263 18.8981 19.8314 17.4073 19.8314ZM22.5185 14.2006C22.5185 14.5164 22.2523 14.7795 21.9328 14.7795H20.4421C20.1226 14.7795 19.8564 14.5164 19.8564 14.2006V12.7798C19.8564 12.4641 20.1226 12.2009 20.4421 12.2009H21.9328C22.2523 12.2009 22.5185 12.4641 22.5185 12.7798V14.2006Z" fill="#C7C7C7"></path>
  </symbol>
  <symbol fill="none" xmlns="http://www.w3.org/2000/svg" viewBox="0 0 33 33" id="telegramm-icon">
    <ellipse cx="16.7144" cy="16.1007" rx="16.2857" ry="16.1007" fill="#313131"></ellipse>
    <path d="M8.0429 16.4008L11.7871 17.7807L13.2467 22.4218C13.3101 22.7354 13.6909 22.7982 13.9447 22.61L16.0389 20.9166C16.2293 20.7284 16.5466 20.7284 16.8004 20.9166L20.5446 23.6135C20.7984 23.8017 21.1792 23.6762 21.2427 23.3626L24.0349 10.1917C24.0984 9.87809 23.7811 9.5645 23.4638 9.68994L8.0429 15.5855C7.66213 15.7109 7.66213 16.2754 8.0429 16.4008ZM13.0563 17.0908L20.4177 12.6377C20.5446 12.575 20.6715 12.7632 20.5446 12.8259L14.5159 18.4078C14.3255 18.596 14.1351 18.8469 14.1351 19.1605L13.9447 20.6657C13.9447 20.8539 13.6274 20.9166 13.564 20.6657L12.8024 17.9061C12.612 17.5925 12.739 17.2162 13.0563 17.0908Z" fill="#C7C7C7"></path>
  </symbol>
  <symbol fill="none" xmlns="http://www.w3.org/2000/svg" viewBox="0 0 34 33" id="vk-icon">
    <ellipse cx="16.8571" cy="16.1007" rx="16.2858" ry="16.1007" fill="#313131"></ellipse>
    <path d="M24.8421 20.2142C24.8421 20.1474 24.7744 20.1474 24.7744 20.0806C24.504 19.546 23.8956 18.8778 23.0843 18.1427C22.6787 17.8086 22.4759 17.5413 22.3407 17.4077C22.1379 17.1404 22.1379 16.9399 22.2055 16.6726C22.2731 16.4722 22.5435 16.138 23.0167 15.5366C23.2871 15.2025 23.4223 15.0021 23.6252 14.8016C24.6392 13.4651 25.1125 12.5964 24.9772 12.1955L24.9097 12.1287C24.8421 12.0619 24.7744 11.995 24.6392 11.995C24.504 11.9282 24.3012 11.9282 24.0984 11.995H21.5294C21.4618 11.995 21.4618 11.995 21.3266 11.995C21.259 11.995 21.1914 11.995 21.1914 11.995H21.1238H21.0562L20.9886 12.0618C20.921 12.1287 20.921 12.1287 20.921 12.1955C20.6506 12.9305 20.3125 13.5319 19.9745 14.2002C19.7717 14.5343 19.5689 14.8684 19.3661 15.1357C19.1633 15.403 19.0281 15.6035 18.8929 15.7371C18.7576 15.8707 18.6224 15.9376 18.5548 16.0712C18.4872 16.138 18.352 16.2049 18.352 16.138C18.2844 16.138 18.2168 16.138 18.2168 16.0712C18.1492 16.0044 18.0816 15.9376 18.014 15.8707C17.9464 15.8039 17.9464 15.6703 17.8788 15.5366C17.8788 15.403 17.8788 15.2693 17.8788 15.2025C17.8788 15.1357 17.8788 14.9352 17.8788 14.8016C17.8788 14.6011 17.8788 14.4675 17.8788 14.4006C17.8788 14.2002 17.8788 13.9329 17.8788 13.6656C17.8788 13.3983 17.8788 13.1978 17.8788 13.0642C17.8788 12.9305 17.8788 12.7301 17.8788 12.5964C17.8788 12.396 17.8788 12.2623 17.8788 12.1955C17.8788 12.1287 17.8112 11.995 17.8112 11.9282C17.7436 11.8614 17.676 11.7946 17.6084 11.7277C17.5408 11.6609 17.4056 11.6609 17.338 11.5941C16.9999 11.5273 16.5943 11.4604 16.1211 11.4604C15.0394 11.4604 14.2958 11.5273 14.0253 11.6609C13.8901 11.7277 13.7549 11.7946 13.6873 11.9282C13.5521 12.0619 13.5521 12.1287 13.6197 12.1287C13.9577 12.1955 14.2282 12.3291 14.3634 12.5296L14.431 12.6633C14.4986 12.7301 14.4986 12.8637 14.5662 13.0642C14.6338 13.2647 14.6338 13.4651 14.6338 13.7324C14.6338 14.1334 14.6338 14.5343 14.6338 14.8016C14.6338 15.1357 14.5662 15.3362 14.5662 15.5366C14.5662 15.7371 14.4986 15.8707 14.431 15.9376C14.3634 16.0712 14.3634 16.138 14.2958 16.138C14.2958 16.138 14.2958 16.2049 14.2281 16.2049C14.1605 16.2049 14.0929 16.2717 13.9577 16.2717C13.8901 16.2717 13.7549 16.2049 13.6873 16.138C13.5521 16.0712 13.4169 15.9376 13.3493 15.8039C13.2141 15.6703 13.0789 15.4698 12.9437 15.2025C12.8085 14.9352 12.6056 14.6679 12.4704 14.267L12.3352 13.9997C12.2676 13.8661 12.1324 13.5988 11.9972 13.2647C11.862 12.9305 11.7268 12.6633 11.5916 12.3291C11.524 12.1955 11.4564 12.1287 11.3888 12.0618H11.3212C11.3212 12.0618 11.2536 11.995 11.186 11.995C11.1183 11.995 11.0508 11.9282 10.9831 11.9282H8.54938C8.27896 11.9282 8.14376 11.995 8.07615 12.0618L8.00854 12.1287C8.00854 12.1287 8.00854 12.1955 8.00854 12.2623C8.00854 12.3291 8.00855 12.396 8.07615 12.5296C8.41418 13.3315 8.8198 14.1334 9.22543 14.9352C9.63105 15.6703 10.0367 16.3385 10.3071 16.8063C10.6451 17.274 10.9155 17.7418 11.2536 18.1427C11.5916 18.5437 11.7944 18.8109 11.862 18.9446C11.9972 19.0782 12.0648 19.145 12.1324 19.2119L12.3352 19.4123C12.4704 19.546 12.6733 19.7465 12.9437 19.9469C13.2141 20.1474 13.5521 20.3479 13.8901 20.5483C14.2281 20.7488 14.6338 20.8824 15.0394 21.0161C15.5126 21.1497 15.9183 21.2166 16.3239 21.1497H17.338C17.5408 21.1497 17.676 21.0829 17.8112 20.9493L17.8788 20.8824C17.8788 20.8156 17.9464 20.8156 17.9464 20.7488C17.9464 20.682 17.9464 20.6152 17.9464 20.4815C17.9464 20.2142 17.9464 20.0138 18.014 19.8133C18.0816 19.6128 18.0816 19.4792 18.1492 19.3455C18.2168 19.2119 18.2844 19.1451 18.352 19.0782C18.4196 19.0114 18.4872 18.9446 18.4872 18.9446H18.5548C18.69 18.8778 18.8929 18.9446 19.0281 19.0782C19.2309 19.2119 19.4337 19.4123 19.5689 19.6128C19.7041 19.8133 19.9069 20.0137 20.1774 20.281C20.4478 20.5483 20.6506 20.7488 20.7858 20.8156L20.9886 20.9493C21.1238 21.0161 21.259 21.0829 21.4618 21.1497C21.6646 21.2166 21.7998 21.2166 21.9351 21.2166L24.2336 21.1497C24.4364 21.1497 24.6392 21.0829 24.7744 21.0161C24.9097 20.9493 24.9772 20.8824 24.9772 20.7488C24.9772 20.682 24.9772 20.5483 24.9772 20.4815C24.842 20.3479 24.8421 20.281 24.8421 20.2142Z" fill="#C7C7C7"></path>
  </symbol>
  <symbol fill="none" xmlns="http://www.w3.org/2000/svg" viewBox="0 0 33 34" id="youtube-icon">
    <ellipse cx="16.2857" cy="16.9025" rx="16.2857" ry="16.0988" fill="#313131"></ellipse>
    <path d="M23.3805 16.0291C23.3805 15.7169 23.3279 15.3526 23.3279 14.9363C23.2752 14.52 23.2226 14.1037 23.1699 13.7394C23.0647 13.3231 22.9067 13.0109 22.5909 12.7507C22.3277 12.4905 21.9592 12.3344 21.5907 12.2824C20.38 12.1263 18.5902 12.0742 16.1688 12.0742C13.7473 12.0742 11.9049 12.1263 10.7468 12.2824C10.3783 12.3344 10.0098 12.4905 9.74664 12.7507C9.48344 13.0109 9.27287 13.3231 9.16759 13.7394C9.06231 14.1037 9.00967 14.468 9.00967 14.9363C8.95703 15.3526 8.95703 15.7169 8.95703 16.0291C8.95703 16.3413 8.95703 16.7056 8.95703 17.2259C8.95703 17.7463 8.95703 18.1626 8.95703 18.4228C8.95703 18.735 9.00967 19.0993 9.00967 19.5156C9.06232 19.9319 9.11495 20.3482 9.16759 20.7125C9.27287 21.1288 9.43079 21.441 9.74664 21.7012C10.0098 21.9614 10.3783 22.1175 10.7468 22.1695C11.9575 22.3256 13.7473 22.3777 16.1688 22.3777C18.5902 22.3777 20.4326 22.3256 21.5907 22.1695C21.9592 22.1175 22.3277 21.9614 22.5909 21.7012C22.8541 21.441 23.0647 21.1288 23.1699 20.7125C23.2752 20.3482 23.3279 19.984 23.3279 19.5156C23.3805 19.0993 23.3805 18.735 23.3805 18.4228C23.3805 18.1106 23.3805 17.7463 23.3805 17.2259C23.3805 16.7056 23.3805 16.2893 23.3805 16.0291ZM18.9587 17.6423L14.8001 20.1921C14.7475 20.2441 14.6422 20.2962 14.5369 20.2962C14.4316 20.2962 14.379 20.2962 14.2737 20.2441C14.1158 20.1401 14.0105 19.984 14.0105 19.7758V14.6241C14.0105 14.4159 14.1158 14.2598 14.2737 14.1557C14.4316 14.0517 14.6422 14.0517 14.8001 14.1557L18.9587 16.7056C19.1166 16.8096 19.2219 16.9658 19.2219 17.1219C19.2219 17.278 19.1166 17.5382 18.9587 17.6423Z" fill="#C7C7C7"></path>
  </symbol>
  <symbol fill="none" xmlns="http://www.w3.org/2000/svg" viewBox="0 0 35 20" id="menu-icon">
    <line x1="2" y1="2" x2="33" y2="2" stroke="white" stroke-width="4" stroke-linecap="round"></line>
    <line x1="2" y1="10" x2="33" y2="10" stroke="white" stroke-width="4" stroke-linecap="round"></line>
    <line x1="2" y1="18" x2="21" y2="18" stroke="white" stroke-width="4" stroke-linecap="round"></line>
  </symbol>
</svg>